HIERARCHY
ROOT Hips
{
	OFFSET 0.00000 0.00000 0.00000
	CHANNELS 6 Xposition Yposition Zposition Zrotation Yrotation Xrotation 
	JOINT LHipJoint
	{
		OFFSET 0 0 0
		CHANNELS 3 Zrotation Yrotation Xrotation
		JOINT LeftUpLeg
		{
			OFFSET 1.38280 -1.96574 0.54427
			CHANNELS 3 Zrotation Yrotation Xrotation
			JOINT LeftLeg
			{
				OFFSET 2.72096 -7.47578 0.00000
				CHANNELS 3 Zrotation Yrotation Xrotation
				JOINT LeftFoot
				{
					OFFSET 2.73041 -7.50176 0.00000
					CHANNELS 3 Zrotation Yrotation Xrotation
					JOINT LeftToeBase
					{
						OFFSET 0.16150 -0.44371 2.18031
						CHANNELS 3 Zrotation Yrotation Xrotation
						End Site
						{
							OFFSET 0.00000 -0.00000 1.12127
						}
					}
				}
			}
		}
	}
	JOINT RHipJoint
	{
		OFFSET 0 0 0
		CHANNELS 3 Zrotation Yrotation Xrotation
		JOINT RightUpLeg
		{
			OFFSET -1.57224 -1.96575 0.54427
			CHANNELS 3 Zrotation Yrotation Xrotation
			JOINT RightLeg
			{
				OFFSET -2.95935 -8.13076 0.00000
				CHANNELS 3 Zrotation Yrotation Xrotation
				JOINT RightFoot
				{
					OFFSET -2.52345 -6.93311 0.00000
					CHANNELS 3 Zrotation Yrotation Xrotation
					JOINT RightToeBase
					{
						OFFSET -0.04475 -0.10171 1.86688
						CHANNELS 3 Zrotation Yrotation Xrotation
						End Site
						{
							OFFSET -0.00000 -0.00000 0.95157
						}
					}
				}
			}
		}
	}
	JOINT LowerBack
	{
		OFFSET 0 0 0
		CHANNELS 3 Zrotation Yrotation Xrotation
		JOINT Spine
		{
			OFFSET 0.00669 2.07367 0.09104
			CHANNELS 3 Zrotation Yrotation Xrotation
			JOINT Spine1
			{
				OFFSET -0.00664 2.06198 -0.04732
				CHANNELS 3 Zrotation Yrotation Xrotation
				JOINT Neck
				{
					OFFSET 0 0 0
					CHANNELS 3 Zrotation Yrotation Xrotation
					JOINT Neck1
					{
						OFFSET -0.00021 1.49948 0.16345
						CHANNELS 3 Zrotation Yrotation Xrotation
						JOINT Head
						{
							OFFSET 0.06080 1.50567 -0.26702
							CHANNELS 3 Zrotation Yrotation Xrotation
							End Site
							{
								OFFSET 0.01726 1.56470 -0.11854
							}
						}
					}
				}
				JOINT LeftShoulder
				{
					OFFSET 0 0 0
					CHANNELS 3 Zrotation Yrotation Xrotation
					JOINT LeftArm
					{
						OFFSET 3.14993 0.82932 -0.22488
						CHANNELS 3 Zrotation Yrotation Xrotation
						JOINT LeftForeArm
						{
							OFFSET 5.68236 -0.00000 -0.00000
							CHANNELS 3 Zrotation Yrotation Xrotation
							JOINT LeftHand
							{
								OFFSET 3.17112 -0.00000 0.00000
								CHANNELS 3 Zrotation Yrotation Xrotation
								JOINT LeftFingerBase
								{
									OFFSET 0 0 0
									CHANNELS 3 Zrotation Yrotation Xrotation
									JOINT LeftHandIndex1
									{
										OFFSET 0.63269 -0.00000 0.00000
										CHANNELS 3 Zrotation Yrotation Xrotation
										End Site
										{
											OFFSET 0.51009 -0.00000 0.00000
										}
									}
								}
								JOINT LThumb
								{
									OFFSET 0 0 0
									CHANNELS 3 Zrotation Yrotation Xrotation
									End Site
									{
										OFFSET 0.51788 -0.00000 0.51788
									}
								}
							}
						}
					}
				}
				JOINT RightShoulder
				{
					OFFSET 0 0 0
					CHANNELS 3 Zrotation Yrotation Xrotation
					JOINT RightArm
					{
						OFFSET -3.10571 0.91279 -0.33334
						CHANNELS 3 Zrotation Yrotation Xrotation
						JOINT RightForeArm
						{
							OFFSET -5.87120 -0.00000 -0.00000
							CHANNELS 3 Zrotation Yrotation Xrotation
							JOINT RightHand
							{
								OFFSET -3.37589 -0.00000 0.00000
								CHANNELS 3 Zrotation Yrotation Xrotation
								JOINT RightFingerBase
								{
									OFFSET 0 0 0
									CHANNELS 3 Zrotation Yrotation Xrotation
									JOINT RightHandIndex1
									{
										OFFSET -0.60326 -0.00000 0.00000
										CHANNELS 3 Zrotation Yrotation Xrotation
										End Site
										{
											OFFSET -0.48636 -0.00000 0.00000
										}
									}
								}
								JOINT RThumb
								{
									OFFSET 0 0 0
									CHANNELS 3 Zrotation Yrotation Xrotation
									End Site
									{
										OFFSET -0.49379 -0.00000 0.49379
									}
								}
							}
						}
					}
				}
			}
		}
	}
}
MOTION
Frames: 11
Frame Time: 0.00787402
0.00 0.00 0.00 1121.9700 89.0187 1131.2900 0.0000 0.0000 0.0000 -4.5153 -14.6513 -31.0392 4.6420 12.9689 39.2521 1.1820 -2.2020 -19.9389 0.9742 -6.2836 -17.6096 0.0000 0.0000 0.0000 17.0938 4.4782 -25.2182 -5.6768 -14.1077 43.6705 -0.0759 16.4723 -12.3264 -0.2453 3.1869 -8.7995 4.7562 1.7923 -6.5339 2.1206 1.8612 2.9514 -0.2109 1.0911 6.8515 -4.5188 -4.4994 -15.9014 1.3416 -5.1456 23.0625 0.5566 -2.5020 10.1389 -0.0000 -0.0000 0.0000 -85.5671 11.9255 53.1529 143.8936 -45.5862 -104.4015 -0.0000 0.0000 -30.3995 20.0647 37.1577 12.4410 -7.1250 0.0000 -0.0000 -19.7028 67.9143 -11.0152 -0.0000 -0.0000 0.0000 92.2313 -15.3764 26.0458 -120.6324 56.1391 -86.1846 0.0000 -0.0000 -61.4282 -18.0005 4.4369 -1.4399 7.1250 -0.0000 -0.0000 6.5019 -25.3119 3.1169
0.00 0.00 0.00 1091.7500 66.3540 1102.7300 0.0000 0.0000 0.0000 -12.5504 -5.6929 -32.3501 6.6039 14.9890 47.3596 2.0265 3.3611 -28.2649 0.5677 -4.8255 -13.4115 0.0000 0.0000 0.0000 5.8603 11.0574 -30.5435 -6.1503 -14.5724 45.5819 1.5247 21.7762 3.0088 -0.1042 2.0814 -5.7307 8.5625 0.1149 -6.2593 2.1078 -0.7006 2.9162 -2.6637 -0.0079 6.5347 2.0350 4.2170 -15.1613 -9.0189 8.3234 25.0691 -2.4031 3.0629 11.1224 -0.0000 0.0000 0.0000 -78.2295 -1.8775 42.2142 148.7440 -41.9459 -107.7594 -0.0000 0.0000 -0.9445 25.1976 32.8143 14.3044 -7.1250 0.0000 -0.0000 -9.1535 65.2350 -4.4946 -0.0000 0.0000 0.0000 90.7619 -14.3080 34.6528 -124.2751 55.0587 -89.1907 0.0000 -0.0000 -78.0019 -11.9260 5.2458 -1.1063 7.1250 -0.0000 -0.0000 10.9820 -24.6179 5.5062
0.00 0.00 0.00 1092.3500 60.2687 1103.5700 0.0000 0.0000 0.0000 -15.9844 -4.1637 -31.1759 6.5824 14.9699 47.2766 2.4399 3.3654 -30.8607 0.7486 -5.5265 -15.4164 0.0000 0.0000 0.0000 2.2337 13.9570 -32.0572 -6.1816 -14.6021 45.7064 1.5388 21.5497 4.7856 -0.0999 2.0382 -5.6113 7.7873 -1.0411 -5.7527 1.8629 -2.1415 3.3946 -2.6438 -0.7307 6.6041 3.2786 7.3207 -14.3769 -11.8578 13.2830 24.8964 -2.8967 5.1381 11.5910 -0.0000 0.0000 0.0000 -64.2856 -19.0242 27.3226 138.1232 -49.1433 -100.1527 -0.0000 -0.0000 3.2623 24.4632 33.9495 14.2557 -7.1250 0.0000 -0.0000 -10.9814 66.1572 -5.6348 -0.0000 0.0000 0.0000 91.0528 -13.3561 36.3317 -124.6778 54.9288 -89.5204 0.0000 -0.0000 -79.2329 -11.0605 4.0080 -0.7828 7.1250 -0.0000 -0.0000 11.7265 -25.8678 5.5455
0.00 0.00 0.00 1094.1300 60.1992 1105.8500 0.0000 0.0000 0.0000 -18.5358 -2.1289 -32.9535 6.2362 14.6534 45.9224 2.4348 -0.5158 -29.4158 0.5805 -4.8787 -13.5630 0.0000 0.0000 0.0000 -1.3785 19.1614 -33.3476 -7.0114 -15.3415 48.9174 0.9346 18.9200 -2.2792 -0.0259 1.0392 -2.8567 2.7045 -5.1475 -3.4697 2.4889 -7.1194 3.4113 0.5032 -3.4528 5.4710 5.9050 11.9082 -13.2812 -14.2525 20.3431 26.1409 -2.9901 8.2299 13.2051 0.0000 -0.0000 0.0000 -11.4600 -53.0579 -23.6378 13.7026 -22.3079 -2.7142 -0.0000 -0.0000 6.3176 19.5267 36.0096 11.7776 -7.1250 0.0000 -0.0000 -19.0121 66.6939 -10.0919 0.0000 -0.0000 0.0000 91.6528 -14.3743 36.3315 -127.2700 54.0389 -91.6306 0.0000 -0.0000 -82.1291 -13.1676 2.6475 -0.6191 7.1250 -0.0000 -0.0000 10.2611 -27.2195 4.4986
0.00 0.00 0.00 1440.5200 75.7820 1451.2400 0.0000 0.0000 0.0000 -11.7674 -10.2826 -24.2339 3.5894 11.5929 34.3067 3.5422 3.0484 -36.7659 0.0526 1.4804 4.0716 0.0000 0.0000 0.0000 12.2994 15.7180 -19.1505 -3.6665 -11.7028 34.6886 -0.6077 10.9353 -14.8363 -0.5584 -4.7867 13.3011 -0.5526 2.4688 -9.2384 0.1679 3.3683 3.2749 1.0445 1.6029 8.6202 -1.7150 -1.2240 -17.3615 1.9427 -1.5226 22.4366 0.7764 -0.5442 10.0436 -0.0000 0.0000 0.0000 -80.7678 6.8931 48.8540 129.0019 -53.3902 -93.0267 -0.0000 0.0000 -53.3102 5.6780 42.2312 3.8232 -7.1250 0.0000 -0.0000 -43.0666 67.6325 -25.2284 -0.0000 0.0000 0.0000 84.8426 6.4159 36.6346 -107.5380 58.8053 -75.1274 0.0000 0.0000 9.6451 -24.6677 21.2380 -9.4456 7.1250 -0.0000 -0.0000 2.5250 -6.8439 2.2083
0.00 0.00 0.00 1441.3000 69.3831 1452.5100 0.0000 0.0000 0.0000 -10.9712 -5.5599 -26.4247 3.8821 12.0019 35.7385 3.8625 3.4291 -38.4845 0.0362 1.2281 3.3765 0.0000 0.0000 0.0000 12.3103 17.9033 -23.0937 -4.2784 -12.5219 37.6042 0.0392 12.6293 -8.3335 -0.6668 -5.2221 14.5432 0.2863 1.8286 -8.5586 1.3059 2.3244 3.6022 1.5912 1.1104 8.5807 -0.2939 1.4061 -18.2976 -0.7721 2.3811 21.7406 0.1155 1.0344 9.9459 0.0000 -0.0000 0.0000 -80.2186 -0.9520 50.1400 115.2831 -57.4412 -81.7077 -0.0000 0.0000 -45.6354 6.7690 42.6234 4.5954 -7.1250 0.0000 -0.0000 -42.7000 68.2502 -25.5515 0.0000 -0.0000 0.0000 84.9998 5.2470 36.5350 -103.0167 59.3500 -71.2481 0.0000 0.0000 8.0947 -24.0171 23.3210 -10.0040 7.1250 -0.0000 -0.0000 3.1626 -4.7471 2.8945
0.00 0.00 0.00 1443.1000 68.0300 1454.3600 0.0000 0.0000 0.0000 -11.6838 -1.5983 -29.6673 4.4135 12.6912 38.2233 3.1282 4.6500 -35.2812 0.0666 -1.6651 -4.5809 0.0000 0.0000 0.0000 11.6188 17.6381 -25.0042 -4.6471 -12.9750 39.2750 0.2512 13.5845 -6.0466 -0.8812 -5.9842 16.7386 1.1509 0.0253 -7.3773 2.0226 -0.2178 3.8069 1.4588 -0.0955 8.1656 0.7807 3.5446 -18.8979 -3.2863 5.6653 21.5500 -0.4761 2.3275 10.1193 0.0000 -0.0000 0.0000 -78.9292 -6.8724 50.0560 100.3860 -59.5885 -68.9821 -0.0000 0.0000 -40.3562 3.1185 42.8250 2.1210 -7.1250 0.0000 -0.0000 -46.5694 67.2521 -27.2380 0.0000 -0.0000 0.0000 82.3988 5.3827 34.8611 -100.9308 59.5437 -69.4519 0.0000 0.0000 6.4022 -23.4605 23.9221 -9.9808 7.1250 -0.0000 -0.0000 3.5748 -4.2157 3.3089
0.00 0.00 0.00 1444.1200 65.5467 1456.0900 0.0000 0.0000 0.0000 -12.5516 1.8344 -33.6598 5.0927 13.4874 41.2216 2.2393 4.1652 -29.9933 0.3995 -4.0583 -11.2408 0.0000 0.0000 0.0000 10.3880 18.6126 -27.1233 -4.8617 -13.2263 40.2216 0.3415 13.8731 -4.8602 -0.7434 -5.5078 15.3627 1.5390 -1.1575 -6.6672 2.4617 -1.8490 3.8526 1.4830 -0.8832 7.8327 2.2423 5.4200 -19.2001 -5.4797 8.3508 20.9193 -1.0856 3.4221 10.1899 -0.0000 -0.0000 0.0000 -76.3635 -12.7307 50.6777 84.4077 -59.8815 -55.1589 -0.0000 0.0000 -37.9505 4.7072 42.6885 3.1954 -7.1250 0.0000 -0.0000 -44.8168 67.6505 -26.4299 -0.0000 -0.0000 0.0000 77.7325 6.1809 31.4129 -101.2934 59.5125 -69.7644 0.0000 0.0000 4.8953 -24.6181 25.2764 -11.0702 7.1250 -0.0000 -0.0000 3.0314 -2.5656 2.8968
0.00 0.00 0.00 1444.6100 58.7448 1457.7300 0.0000 0.0000 0.0000 -13.0041 3.8447 -36.0392 5.4159 13.8374 42.5900 1.6989 2.0373 -25.4346 0.4072 -4.0966 -11.3485 0.0000 0.0000 0.0000 7.6070 21.8720 -29.7029 -4.8405 -13.2019 40.1290 0.4884 13.5938 -1.2491 -0.8390 -5.8430 16.3296 0.7343 -2.8621 -5.6790 3.3679 -4.0853 3.9529 2.6319 -2.0490 7.5362 4.3592 8.9650 -18.2734 -9.0869 13.5262 19.7856 -1.8977 5.6062 10.2925 -0.0000 0.0000 0.0000 -70.5391 -20.3468 49.6063 61.4418 -56.6820 -35.5433 -0.0000 0.0000 -37.2267 9.5021 42.4745 6.4485 -7.1250 0.0000 -0.0000 -39.6987 69.0129 -24.1875 -0.0000 0.0000 0.0000 61.0766 11.8938 26.8098 -102.0019 59.4487 -70.3747 0.0000 0.0000 3.1042 -24.9086 29.1814 -12.7575 7.1250 -0.0000 -0.0000 3.4070 1.5923 3.5065
0.00 0.00 0.00 1443.0400 42.7983 1456.1400 0.0000 0.0000 0.0000 -11.9423 4.8611 -32.6908 5.1585 13.5601 41.5030 2.8134 2.8161 -32.8048 0.0022 0.3028 0.8321 0.0000 0.0000 0.0000 2.3856 28.0106 -32.2141 -4.5628 -12.8738 38.8979 0.5317 13.1091 7.9258 -1.0837 -6.6166 18.5842 -0.5374 -6.5746 -3.0520 2.3450 -8.8762 4.8081 1.8998 -4.4586 7.1900 11.9534 15.4052 -10.9146 -15.5508 22.4703 17.0642 -3.9948 9.9933 10.4446 -0.0000 0.0000 0.0000 -41.8116 -7.6077 62.6992 53.7968 -54.4166 -29.2350 -0.0000 0.0000 -41.5754 16.3928 39.1611 10.5242 -7.1250 0.0000 -0.0000 -26.7211 68.5609 -15.5154 -0.0000 0.0000 0.0000 -10.3437 26.1189 17.3541 -108.6864 58.6386 -76.1089 0.0000 -0.0000 -0.2937 -29.7484 33.2099 -17.3812 7.1250 -0.0000 -0.0000 1.4011 7.0264 1.5624
0.00 0.00 0.00 1442.1200 34.6787 1454.2500 0.0000 0.0000 0.0000 -15.2706 14.4295 -34.4215 5.8887 14.3196 44.5334 2.8505 -1.0464 -31.7171 0.0486 -1.4234 -3.9146 0.0000 0.0000 0.0000 -0.2612 33.2518 -32.3365 -4.6882 -13.0238 39.4577 0.5045 13.2650 9.7600 -1.2499 -7.0882 19.9771 0.1291 -7.8121 -1.1605 -0.0212 -10.4150 5.7038 -0.7984 -5.1244 6.5604 13.1035 17.5699 -7.4032 -17.6790 26.1379 16.7758 -4.3530 11.7526 10.7744 0.0000 -0.0000 0.0000 -46.4544 24.9272 64.4214 61.8919 -56.7933 -35.9197 -0.0000 0.0000 -44.6690 20.4943 35.0370 12.1111 -7.1250 0.0000 -0.0000 -16.8338 66.0637 -8.6634 0.0000 -0.0000 0.0000 -37.6174 12.2855 6.9160 -122.7385 55.5349 -87.9274 0.0000 0.0000 1.1244 -35.1940 35.9721 -22.5026 7.1250 -0.0000 -0.0000 -0.8634 11.6259 -1.0198
